<?xml version="1.0" standalone="no"?>
<!-- Generator: Adobe Fireworks 10, Export SVG Extension by Aaron Beall (http://fireworks.abeall.com) . Version: 0.6.1  -->
<!DOCTYPE svg PUBLIC "-//W3C//DTD SVG 1.1//EN" "http://www.w3.org/Graphics/SVG/1.1/DTD/svg11.dtd">
<svg id="LogoVec-Page%201" viewBox="0 0 500 500" style="background-color:#ffffff00" version="1.1"
	xmlns="http://www.w3.org/2000/svg" xmlns:xlink="http://www.w3.org/1999/xlink" xml:space="preserve"
	x="0px" y="0px" width="500px" height="500px"
>
	<g>
		<path d="M 16 193.3717 L 77.6283 423.3717 L 307.6283 485 L 476 316.6283 L 414.3716 86.6283 L 184.3716 25 L 16 193.3717 Z" fill="#0c7cd5"/>
	</g>
	<path d="M 384.75 407.88 L 428.475 364.155 L 223.245 35.415 L 184.3716 25 L 160.24 49.13 L 384.75 407.88 Z" fill="#0f97ff"/>
	<path d="M 219.385 461.355 L 307.6283 485 L 364.98 427.65 L 146.15 63.225 L 42.535 166.84 L 219.385 461.355 Z" fill="#0f97ff"/>
	<g>
		<path d="M 75 227.6974 L 124.3027 411.6974 L 308.3027 461 L 443 326.3026 L 393.6973 142.3026 L 209.6973 93 L 75 227.6974 ZM 218.4639 125.7165 L 369.747 166.2526 L 410.2834 317.5363 L 299.5361 428.2835 L 148.253 387.7474 L 107.7166 236.4638 L 218.4639 125.7165 Z" fill="#0c7cd5"/>
	</g>
	<g>
		<path d="M 63 205.6974 L 112.3027 389.6974 L 296.3027 439 L 431 304.3026 L 381.6973 120.3026 L 197.6973 71 L 63 205.6974 ZM 206.4639 103.7165 L 357.747 144.2526 L 398.2834 295.5363 L 287.5361 406.2835 L 136.253 365.7474 L 95.7166 214.4638 L 206.4639 103.7165 Z" fill="#ffffff"/>
	</g>
</svg>